<svg width="14" height="14" viewBox="0 0 14 14" fill="none" xmlns="http://www.w3.org/2000/svg">
<path d="M6.33325 8.99992H7.66659V10.3333H6.33325V8.99992ZM6.33325 3.66659H7.66659V7.66659H6.33325V3.66659ZM6.99325 0.333252C3.31325 0.333252 0.333252 3.31992 0.333252 6.99992C0.333252 10.6799 3.31325 13.6666 6.99325 13.6666C10.6799 13.6666 13.6666 10.6799 13.6666 6.99992C13.6666 3.31992 10.6799 0.333252 6.99325 0.333252ZM6.99992 12.3333C4.05325 12.3333 1.66659 9.94659 1.66659 6.99992C1.66659 4.05325 4.05325 1.66659 6.99992 1.66659C9.94659 1.66659 12.3333 4.05325 12.3333 6.99992C12.3333 9.94659 9.94659 12.3333 6.99992 12.3333Z" fill="#CC0000"/>
</svg>
