<svg width="32" height="32" viewBox="0 0 32 32" fill="none" xmlns="http://www.w3.org/2000/svg">
<g clip-path="url(#clip0_32182_68437)">
<rect width="32" height="32" fill="white"/>
<path d="M8.17938 11.7441C8.16436 11.7431 8.1493 11.7453 8.1352 11.7505C8.1211 11.7557 8.10829 11.7638 8.09765 11.7743C8.087 11.7848 8.07878 11.7974 8.0735 11.8113C8.06823 11.8253 8.06604 11.8401 8.06708 11.8549V14.6246C8.06708 14.6833 8.04339 14.7397 8.00126 14.7813C7.95913 14.8228 7.90201 14.8462 7.84243 14.8462H7.22465C7.16507 14.8462 7.10792 14.8228 7.06579 14.7813C7.02366 14.7397 7 14.6833 7 14.6246V7.30574C7 7.24697 7.02366 7.19063 7.06579 7.14907C7.10792 7.10752 7.16507 7.08418 7.22465 7.08418H9.24645C9.76612 7.0775 10.2733 7.2413 10.6883 7.54984C11.1033 7.85838 11.4027 8.29417 11.5393 8.78874C11.6759 9.28332 11.642 9.80865 11.443 10.2822C11.244 10.7557 10.8912 11.1506 10.4399 11.4048C10.2293 11.5226 10.145 11.6264 10.2503 11.8203L11.5771 14.5207C11.6013 14.5556 11.6144 14.5968 11.615 14.639C11.6155 14.6812 11.6034 14.7227 11.5802 14.7581C11.557 14.7936 11.5236 14.8216 11.4844 14.8384C11.4451 14.8553 11.4017 14.8604 11.3595 14.8531H10.7347C10.663 14.8556 10.5923 14.8355 10.5329 14.7957C10.4736 14.7558 10.4287 14.6983 10.4048 14.6315L9.07796 11.8618C9.06074 11.8213 9.03132 11.7869 8.99365 11.7634C8.95599 11.7398 8.9119 11.7283 8.86736 11.7303L8.17938 11.7441ZM8.17938 8.14358C8.16436 8.14255 8.1493 8.14471 8.1352 8.14992C8.1211 8.15512 8.10829 8.16323 8.09765 8.17373C8.087 8.18423 8.07878 8.19687 8.0735 8.21077C8.06823 8.22468 8.06604 8.23953 8.06708 8.25434V10.5809C8.06604 10.5957 8.06823 10.6105 8.0735 10.6244C8.07878 10.6384 8.087 10.651 8.09765 10.6615C8.10829 10.672 8.1211 10.6801 8.1352 10.6853C8.1493 10.6905 8.16436 10.6927 8.17938 10.6917H9.24645C9.58904 10.6917 9.91757 10.5574 10.1598 10.3185C10.4021 10.0796 10.5382 9.75552 10.5382 9.41762C10.5382 9.07972 10.4021 8.75566 10.1598 8.51673C9.91757 8.2778 9.58904 8.14358 9.24645 8.14358H8.17938Z" fill="#1A171B"/>
<path d="M17.853 9.30648C17.9583 10.4119 17.9583 11.5246 17.853 12.6301C17.81 13.2619 17.5235 13.8535 17.0523 14.2836C16.581 14.7136 15.9608 14.9495 15.3188 14.9427C14.6756 14.9562 14.0523 14.7225 13.5806 14.2909C13.109 13.8593 12.826 13.2637 12.7915 12.6301C12.6792 11.525 12.6792 10.4116 12.7915 9.30648C12.8378 8.6777 13.1246 8.08974 13.5938 7.66165C14.063 7.23356 14.6796 6.99731 15.3188 7.00072C15.962 6.98533 16.5861 7.21733 17.0591 7.64764C17.532 8.07795 17.8168 8.67284 17.853 9.30648V9.30648ZM13.8586 9.30648C13.7463 10.4116 13.7463 11.525 13.8586 12.6301C13.8925 12.9839 14.0629 13.3113 14.3347 13.5445C14.6065 13.7778 14.9588 13.8991 15.3188 13.8833C15.6799 13.901 16.034 13.7805 16.3073 13.547C16.5806 13.3136 16.7521 12.9851 16.786 12.6301C16.9123 11.5257 16.9123 10.4108 16.786 9.30648C16.7317 8.96199 16.5544 8.64798 16.2859 8.42118C16.0175 8.19437 15.6757 8.06971 15.3223 8.06971C14.9688 8.06971 14.627 8.19437 14.3586 8.42118C14.0902 8.64798 13.9128 8.96199 13.8586 9.30648V9.30648Z" fill="#1A171B"/>
<path d="M23.9257 14.6313C23.924 14.6895 23.8997 14.7449 23.858 14.7861C23.8162 14.8272 23.7601 14.8511 23.7011 14.8529H22.7674C22.641 14.8529 22.5849 14.8183 22.5287 14.6659L20.3103 9.17507C20.3103 9.16405 20.3059 9.15349 20.298 9.1457C20.2901 9.13791 20.2794 9.13353 20.2682 9.13353C20.2571 9.13353 20.2463 9.13791 20.2384 9.1457C20.2305 9.15349 20.2261 9.16405 20.2261 9.17507V14.6105C20.2243 14.6688 20.2001 14.7241 20.1584 14.7653C20.1166 14.8065 20.0605 14.8304 20.0015 14.8321H19.4258C19.3662 14.8321 19.3091 14.8088 19.267 14.7672C19.2248 14.7257 19.2012 14.6693 19.2012 14.6105V7.30554C19.2012 7.24678 19.2248 7.19043 19.267 7.14888C19.3091 7.10732 19.3662 7.08398 19.4258 7.08398H20.3595C20.4859 7.08398 20.542 7.1186 20.5982 7.27786L22.8095 12.741C22.8132 12.75 22.8195 12.7577 22.8276 12.7632C22.8357 12.7686 22.8453 12.7715 22.8551 12.7715C22.865 12.7715 22.8746 12.7686 22.8827 12.7632C22.8909 12.7577 22.8971 12.75 22.9008 12.741V7.32631C22.9008 7.26755 22.9245 7.2112 22.9666 7.16965C23.0087 7.1281 23.0659 7.10476 23.1254 7.10476H23.7011C23.7601 7.10649 23.8162 7.13039 23.858 7.17157C23.8997 7.21275 23.924 7.2681 23.9257 7.32631V14.6313Z" fill="#1A171B"/>
<path d="M12.7849 19.4178C12.656 20.5448 12.421 21.6575 12.0829 22.7414C11.6757 23.967 10.9246 25.0541 9.27484 25.0541C8.96431 25.0787 8.6521 25.0351 8.36073 24.9264C8.06936 24.8176 7.80608 24.6465 7.58986 24.4253C7.37364 24.2041 7.20987 23.9383 7.11035 23.6471C7.01083 23.3559 6.97804 23.0466 7.01435 22.7414C7.13579 21.6133 7.37096 20.4999 7.71637 19.4178C8.13055 18.2061 8.87469 17.1121 10.5244 17.1121C10.8343 17.0876 11.1458 17.1311 11.4366 17.2395C11.7274 17.3478 11.9903 17.5183 12.2064 17.7388C12.4225 17.9592 12.5864 18.224 12.6864 18.5144C12.7865 18.8047 12.8201 19.1132 12.7849 19.4178V19.4178ZM8.79045 19.4178C8.44946 20.5011 8.21439 21.614 8.08843 22.7414C8.06336 22.9051 8.07627 23.0723 8.1262 23.2303C8.17613 23.3884 8.26179 23.5332 8.37669 23.6538C8.49159 23.7745 8.63275 23.8679 8.78955 23.9269C8.94634 23.986 9.11467 24.0091 9.28186 23.9947C9.67404 24.0118 10.0605 23.8972 10.378 23.6695C10.6955 23.4418 10.9254 23.1146 11.0299 22.7414C11.3842 21.6616 11.6195 20.5474 11.7319 19.4178C11.7598 19.2537 11.7489 19.0854 11.7001 18.9261C11.6512 18.7668 11.5657 18.6208 11.4501 18.4994C11.3346 18.3781 11.1922 18.2848 11.0341 18.2267C10.8759 18.1686 10.7063 18.1473 10.5385 18.1646C10.1463 18.1475 9.75984 18.2621 9.44231 18.4898C9.12478 18.7174 8.89496 19.0446 8.79045 19.4178Z" fill="#1A171B"/>
<path d="M16.8849 22.0573L18.0222 24.6331C18.0924 24.7854 17.966 24.9655 17.7414 24.9655H17.1938C17.0113 24.9655 16.9691 24.8755 16.913 24.7439L15.7195 21.9742C15.7111 21.9339 15.6877 21.8981 15.654 21.8738C15.6203 21.8495 15.5786 21.8384 15.537 21.8427H14.9403C14.9072 21.844 14.8753 21.8553 14.8489 21.8751C14.8225 21.895 14.803 21.9223 14.7929 21.9535L14.1962 24.7231C14.1824 24.7838 14.1489 24.8383 14.1007 24.8783C14.0525 24.9183 13.9923 24.9416 13.9294 24.9447H13.3116C13.2849 24.9434 13.2587 24.9363 13.2351 24.9239C13.2114 24.9115 13.1908 24.8941 13.1747 24.8729C13.1586 24.8518 13.1474 24.8274 13.142 24.8015C13.1365 24.7756 13.1369 24.7488 13.1432 24.7231L14.7157 17.3974C14.7308 17.3362 14.7657 17.2815 14.8151 17.2415C14.8645 17.2016 14.9257 17.1785 14.9895 17.1758H16.7866C18.1907 17.1758 18.9488 17.9028 18.9488 19.0661C18.9376 19.6243 18.7625 20.1673 18.4448 20.6294C18.1271 21.0915 17.6803 21.4528 17.1587 21.6696C16.92 21.7942 16.8007 21.8496 16.8849 22.0573ZM15.7195 18.256C15.6871 18.254 15.6552 18.2644 15.6304 18.285C15.6055 18.3057 15.5897 18.3349 15.5862 18.3667L15.0737 20.6933C15.0737 20.7625 15.0737 20.8041 15.165 20.8041H16.232C16.4581 20.8108 16.683 20.7702 16.892 20.685C17.101 20.5997 17.2893 20.4717 17.4445 20.3095C17.5998 20.1472 17.7184 19.9544 17.7925 19.7436C17.8667 19.5329 17.8947 19.3091 17.8747 19.0869C17.8747 18.4429 17.3412 18.256 16.7866 18.256H15.7195Z" fill="#1A171B"/>
<path d="M20.395 24.7426C20.3812 24.8033 20.3477 24.8578 20.2995 24.8978C20.2513 24.9378 20.1911 24.9612 20.1282 24.9642H19.5105C19.4832 24.9642 19.4563 24.958 19.432 24.9459C19.4076 24.9339 19.3864 24.9165 19.3701 24.895C19.3537 24.8735 19.3427 24.8485 19.3378 24.8221C19.3329 24.7956 19.3343 24.7684 19.342 24.7426L20.9145 17.4169C20.9282 17.3562 20.9618 17.3017 21.01 17.2617C21.0582 17.2217 21.1183 17.1984 21.1812 17.1953H22.9644C24.3684 17.1953 25.1196 17.9223 25.1196 19.0856C25.1308 19.8068 24.8521 20.5031 24.3443 21.0221C23.8365 21.5411 23.1409 21.8407 22.4098 21.8553H21.1391C21.1057 21.8555 21.0733 21.8664 21.0467 21.8864C21.0201 21.9064 21.0008 21.9343 20.9917 21.966L20.395 24.7426ZM21.9114 18.2547C21.8793 18.2543 21.8483 18.2653 21.8238 18.2856C21.7993 18.306 21.783 18.3343 21.778 18.3655L21.2725 20.692C21.2725 20.7612 21.2725 20.8028 21.3638 20.8028H22.4308C22.6566 20.8084 22.881 20.7671 23.0895 20.6815C23.298 20.5958 23.4858 20.4679 23.6408 20.3059C23.7958 20.1439 23.9144 19.9514 23.989 19.7412C24.0635 19.531 24.0924 19.3076 24.0735 19.0856C24.0735 18.4416 23.533 18.2547 22.9854 18.2547H21.9114Z" fill="#1A171B"/>
</g>
<defs>
<clipPath id="clip0_32182_68437">
<rect width="32" height="32" rx="2" fill="white"/>
</clipPath>
</defs>
</svg>
