<svg width="167" height="36" viewBox="0 0 167 36" fill="none" xmlns="http://www.w3.org/2000/svg">
<g clip-path="url(#clip0_31781_656)">
<path d="M5.19746 21.4022C5.13127 21.3977 5.06491 21.4072 5.00278 21.4302C4.94064 21.4531 4.88418 21.4889 4.83727 21.5352C4.79036 21.5815 4.75412 21.6372 4.73087 21.6984C4.70761 21.7597 4.69796 21.8252 4.70254 21.8905V34.0962C4.70254 34.3552 4.59816 34.6036 4.4125 34.7867C4.22684 34.9698 3.97509 35.0727 3.71252 35.0727H0.990019C0.727455 35.0727 0.475604 34.9698 0.289944 34.7867C0.104283 34.6036 0 34.3552 0 34.0962V1.84249C0 1.58352 0.104283 1.3352 0.289944 1.15208C0.475604 0.968957 0.727455 0.8661 0.990019 0.8661H9.9C12.1901 0.836671 14.4252 1.55852 16.2542 2.91824C18.0832 4.27796 19.4023 6.19845 20.0043 8.37801C20.6063 10.5576 20.4572 12.8727 19.5802 14.9595C18.7032 17.0464 17.1481 18.7867 15.1593 19.907C14.2312 20.4258 13.86 20.8835 14.324 21.7379L20.1712 33.6385C20.2776 33.7923 20.3356 33.9736 20.338 34.1597C20.3404 34.3459 20.287 34.5285 20.1846 34.6848C20.0823 34.8412 19.9353 34.9643 19.7623 35.0387C19.5893 35.1131 19.3979 35.1355 19.2121 35.1031H16.4587C16.1425 35.1144 15.8309 35.0258 15.5693 34.8501C15.3078 34.6745 15.1099 34.4211 15.0046 34.1268L9.15744 21.921C9.08158 21.7422 8.95192 21.5907 8.78592 21.4871C8.61992 21.3834 8.42564 21.3325 8.22935 21.3412L5.19746 21.4022ZM5.19746 5.5348C5.13127 5.53028 5.06491 5.5398 5.00278 5.56273C4.94064 5.58567 4.88418 5.62141 4.83727 5.66768C4.79036 5.71395 4.75412 5.76964 4.73087 5.83093C4.70761 5.89221 4.69796 5.95766 4.70254 6.02294V16.2758C4.69796 16.3411 4.70761 16.4066 4.73087 16.4678C4.75412 16.5291 4.79036 16.5848 4.83727 16.6311C4.88418 16.6774 4.94064 16.7132 5.00278 16.7361C5.06491 16.7591 5.13127 16.7686 5.19746 16.7641H9.9C11.4097 16.7641 12.8576 16.1725 13.9251 15.1195C14.9927 14.0666 15.5925 12.6385 15.5925 11.1494C15.5925 9.66034 14.9927 8.2322 13.9251 7.17925C12.8576 6.1263 11.4097 5.5348 9.9 5.5348H5.19746Z" fill="#1A171B"/>
<path d="M47.8292 10.6611C48.2932 15.5327 48.2932 20.4364 47.8292 25.308C47.6397 28.0923 46.377 30.6996 44.3002 32.5948C42.2234 34.49 39.49 35.5294 36.6608 35.4998C33.8262 35.5592 31.0793 34.5291 29.0009 32.6271C26.9224 30.7251 25.6753 28.1004 25.5233 25.308C25.0284 20.4379 25.0284 15.5312 25.5233 10.6611C25.7273 7.89011 26.9911 5.29901 29.0589 3.41244C31.1267 1.52587 33.8441 0.484722 36.6608 0.499754C39.4956 0.431923 42.246 1.45435 44.3303 3.3507C46.4146 5.24705 47.6694 7.86867 47.8292 10.6611ZM30.2259 10.6611C29.7309 15.5312 29.7309 20.4379 30.2259 25.308C30.3752 26.8671 31.1263 28.31 32.3241 29.338C33.5219 30.3661 35.0746 30.9006 36.6608 30.8311C38.2523 30.9087 39.8127 30.3779 41.0172 29.349C42.2216 28.3202 42.9773 26.8726 43.1267 25.308C43.6836 20.4411 43.6836 15.5279 43.1267 10.6611C42.8877 9.14295 42.106 7.75916 40.9231 6.75964C39.7402 5.76011 38.234 5.21073 36.6763 5.21073C35.1187 5.21073 33.6123 5.76011 32.4294 6.75964C31.2465 7.75916 30.465 9.14295 30.2259 10.6611Z" fill="#1A171B"/>
<path d="M74.5901 34.1269C74.5823 34.3834 74.4754 34.6273 74.2914 34.8088C74.1074 34.9903 73.8601 35.0956 73.6 35.1033H69.4853C68.9284 35.1033 68.681 34.9507 68.4335 34.2794L58.6572 10.0815C58.6572 10.033 58.6378 9.98642 58.6029 9.95208C58.5681 9.91774 58.5208 9.89844 58.4716 9.89844C58.4224 9.89844 58.3752 9.91774 58.3404 9.95208C58.3056 9.98642 58.286 10.033 58.286 10.0815V34.0353C58.2782 34.2919 58.1715 34.5358 57.9875 34.7173C57.8035 34.8988 57.5562 35.0041 57.2961 35.0117H54.7592C54.4966 35.0117 54.2448 34.9089 54.0591 34.7257C53.8734 34.5426 53.7692 34.2943 53.7692 34.0353V1.8426C53.7692 1.58363 53.8734 1.33531 54.0591 1.15219C54.2448 0.969068 54.4966 0.866211 54.7592 0.866211H58.8738C59.4307 0.866211 59.6782 1.01878 59.9257 1.72061L69.671 25.7964C69.6871 25.8361 69.7148 25.8701 69.7506 25.894C69.7865 25.9179 69.8287 25.9308 69.872 25.9308C69.9153 25.9308 69.9577 25.9179 69.9935 25.894C70.0294 25.8701 70.0571 25.8361 70.0731 25.7964V1.93414C70.0731 1.67517 70.1775 1.42685 70.3632 1.24373C70.5488 1.06061 70.8006 0.95775 71.0632 0.95775H73.6C73.8601 0.965414 74.1074 1.07072 74.2914 1.2522C74.4754 1.43369 74.5823 1.67759 74.5901 1.93414V34.1269Z" fill="#1A171B"/>
<path d="M112.55 10.6612C111.982 15.6276 110.946 20.5311 109.456 25.3081C107.662 30.7091 104.352 35.4999 97.0815 35.4999C95.713 35.6084 94.3371 35.4162 93.0531 34.937C91.769 34.4577 90.6087 33.7035 89.6559 32.7286C88.703 31.7538 87.9813 30.5825 87.5427 29.2993C87.1041 28.0161 86.9596 26.653 87.1196 25.3081C87.6548 20.3365 88.6912 15.43 90.2134 10.6612C92.0387 5.32119 95.318 0.49987 102.588 0.49987C103.954 0.392097 105.327 0.583823 106.608 1.06131C107.89 1.53879 109.048 2.29024 110.001 3.2616C110.953 4.23297 111.675 5.40021 112.116 6.67957C112.557 7.95893 112.705 9.31868 112.55 10.6612ZM94.9468 10.6612C93.4441 15.435 92.4081 20.3396 91.8531 25.3081C91.7426 26.0294 91.7995 26.7661 92.0195 27.4626C92.2395 28.1591 92.617 28.7973 93.1234 29.329C93.6297 29.8608 94.2519 30.2722 94.9428 30.5324C95.6338 30.7927 96.3756 30.8948 97.1124 30.8312C98.8407 30.9066 100.544 30.4013 101.943 29.398C103.342 28.3947 104.355 26.9528 104.816 25.3081C106.377 20.5495 107.414 15.6389 107.91 10.6612C108.033 9.93783 107.985 9.19614 107.769 8.49407C107.554 7.79199 107.177 7.1485 106.668 6.61383C106.159 6.07916 105.531 5.66779 104.834 5.4118C104.137 5.15581 103.39 5.06216 102.65 5.13812C100.922 5.06272 99.2188 5.56799 97.8195 6.57127C96.4202 7.57456 95.4074 9.01647 94.9468 10.6612Z" fill="#1A171B"/>
<path d="M130.618 22.2871L135.629 33.6385C135.939 34.3098 135.382 35.1031 134.392 35.1031H131.979C131.175 35.1031 130.989 34.7065 130.741 34.1267L125.482 21.9209C125.445 21.7432 125.342 21.5854 125.193 21.4782C125.044 21.3711 124.861 21.3223 124.678 21.3412H122.048C121.902 21.3469 121.761 21.3969 121.645 21.4842C121.529 21.5716 121.443 21.6921 121.398 21.8294L118.769 34.0352C118.708 34.3024 118.56 34.5426 118.348 34.719C118.135 34.8953 117.87 34.9981 117.593 35.0116H114.871C114.753 35.0058 114.637 34.9745 114.533 34.9198C114.429 34.8651 114.338 34.7884 114.267 34.6952C114.196 34.602 114.147 34.4945 114.123 34.3805C114.099 34.2664 114.101 34.1485 114.128 34.0352L121.058 1.7509C121.125 1.4812 121.278 1.24021 121.496 1.06412C121.714 0.888023 121.983 0.786322 122.265 0.774414H130.185C136.372 0.774414 139.713 3.97846 139.713 9.10487C139.664 11.5649 138.892 13.9579 137.492 15.9943C136.092 18.0306 134.123 19.6229 131.824 20.5783C130.772 21.1276 130.246 21.3717 130.618 22.2871ZM125.482 5.53474C125.339 5.52606 125.199 5.57188 125.089 5.66279C124.98 5.75369 124.91 5.88261 124.894 6.02289L122.636 16.2758C122.636 16.5809 122.636 16.764 123.038 16.764H127.74C128.737 16.7937 129.728 16.6148 130.649 16.2392C131.57 15.8635 132.4 15.2995 133.084 14.5845C133.768 13.8695 134.291 13.0196 134.617 12.0908C134.944 11.1621 135.068 10.1757 134.98 9.19641C134.98 6.35858 132.629 5.53474 130.185 5.53474H125.482Z" fill="#1A171B"/>
<path d="M146.086 34.1269C146.026 34.3941 145.878 34.6343 145.666 34.8107C145.453 34.9871 145.188 35.0898 144.911 35.1033H142.188C142.068 35.1033 141.95 35.0758 141.842 35.0228C141.735 34.9698 141.642 34.8929 141.569 34.7982C141.497 34.7034 141.449 34.5934 141.427 34.4769C141.406 34.3604 141.412 34.2406 141.446 34.1269L148.376 1.8426C148.436 1.57537 148.584 1.33519 148.796 1.1588C149.009 0.982416 149.274 0.879643 149.551 0.866211H157.409C163.597 0.866211 166.907 4.07016 166.907 9.19658C166.957 12.3749 165.728 15.4433 163.491 17.7307C161.253 20.0181 158.187 21.3382 154.965 21.4023H149.366C149.218 21.4034 149.076 21.4517 148.958 21.5397C148.841 21.6277 148.756 21.7508 148.716 21.8906L146.086 34.1269ZM152.769 5.53491C152.628 5.53316 152.491 5.58151 152.383 5.67115C152.275 5.76078 152.203 5.88564 152.181 6.02306L149.953 16.2759C149.953 16.5811 149.954 16.7642 150.356 16.7642H155.058C156.053 16.789 157.042 16.6068 157.961 16.2295C158.88 15.8521 159.707 15.2882 160.39 14.5742C161.073 13.8603 161.596 13.0124 161.925 12.0858C162.253 11.1592 162.38 10.1748 162.297 9.19658C162.297 6.35874 159.915 5.53491 157.502 5.53491H152.769Z" fill="#1A171B"/>
</g>
<defs>
<clipPath id="clip0_31781_656">
<rect width="167" height="35" fill="white" transform="translate(0 0.5)"/>
</clipPath>
</defs>
</svg>
